<svg xmlns="http://www.w3.org/2000/svg" viewBox="0 0 400 200" fill="none">
  <defs>
    <linearGradient id="bg4" x1="0%" y1="0%" x2="100%" y2="100%">
      <stop offset="0%" style="stop-color:#FFFBEB"/>
      <stop offset="100%" style="stop-color:#EFF6FF"/>
    </linearGradient>
  </defs>
  <rect width="400" height="200" rx="12" fill="url(#bg4)"/>
  <!-- Dashboard panel -->
  <rect x="30" y="20" width="340" height="160" rx="10" fill="white" stroke="#E2E8F0" stroke-width="1.5"/>
  <!-- Sidebar -->
  <rect x="30" y="20" width="70" height="160" rx="10" fill="#2563EB" opacity="0.06"/>
  <rect x="30" y="20" width="70" height="30" rx="10" fill="#2563EB" opacity="0.1"/>
  <circle cx="65" cy="35" r="8" fill="#2563EB" opacity="0.2"/>
  <rect x="42" y="60" width="46" height="5" rx="2.5" fill="#2563EB" opacity="0.3"/>
  <rect x="42" y="72" width="40" height="5" rx="2.5" fill="#2563EB" opacity="0.15"/>
  <rect x="42" y="84" width="50" height="5" rx="2.5" fill="#F59E0B" opacity="0.4"/>
  <rect x="42" y="96" width="36" height="5" rx="2.5" fill="#2563EB" opacity="0.15"/>
  <rect x="42" y="108" width="44" height="5" rx="2.5" fill="#2563EB" opacity="0.15"/>
  <!-- Pipeline columns -->
  <text x="122" y="40" font-family="Inter, sans-serif" font-size="8" fill="#64748B" font-weight="600">NEW</text>
  <text x="192" y="40" font-family="Inter, sans-serif" font-size="8" fill="#64748B" font-weight="600">QUALIFIED</text>
  <text x="272" y="40" font-family="Inter, sans-serif" font-size="8" fill="#64748B" font-weight="600">PROPOSAL</text>
  <text x="340" y="40" font-family="Inter, sans-serif" font-size="8" fill="#64748B" font-weight="600">WON</text>
  <!-- Vertical dividers -->
  <line x1="175" y1="48" x2="175" y2="170" stroke="#E2E8F0" stroke-width="1"/>
  <line x1="255" y1="48" x2="255" y2="170" stroke="#E2E8F0" stroke-width="1"/>
  <line x1="330" y1="48" x2="330" y2="170" stroke="#E2E8F0" stroke-width="1"/>
  <!-- Deal cards - New -->
  <rect x="108" y="52" width="60" height="35" rx="5" fill="#2563EB" opacity="0.08" stroke="#2563EB" stroke-width="1"/>
  <rect x="114" y="58" width="40" height="4" rx="2" fill="#2563EB" opacity="0.4"/>
  <text x="114" y="75" font-family="Inter, sans-serif" font-size="8" fill="#2563EB" font-weight="600">$4,200</text>
  <rect x="108" y="94" width="60" height="35" rx="5" fill="#2563EB" opacity="0.06" stroke="#2563EB" stroke-width="0.8"/>
  <rect x="114" y="100" width="35" height="4" rx="2" fill="#2563EB" opacity="0.3"/>
  <text x="114" y="117" font-family="Inter, sans-serif" font-size="8" fill="#2563EB" font-weight="500">$2,800</text>
  <rect x="108" y="136" width="60" height="30" rx="5" fill="#2563EB" opacity="0.04" stroke="#2563EB" stroke-width="0.6"/>
  <rect x="114" y="143" width="42" height="4" rx="2" fill="#2563EB" opacity="0.2"/>
  <text x="114" y="158" font-family="Inter, sans-serif" font-size="8" fill="#2563EB" font-weight="400">$1,500</text>
  <!-- Deal cards - Qualified -->
  <rect x="182" y="52" width="66" height="35" rx="5" fill="#0D9488" opacity="0.1" stroke="#0D9488" stroke-width="1"/>
  <rect x="188" y="58" width="45" height="4" rx="2" fill="#0D9488" opacity="0.4"/>
  <text x="188" y="75" font-family="Inter, sans-serif" font-size="8" fill="#0D9488" font-weight="600">$8,500</text>
  <rect x="182" y="94" width="66" height="35" rx="5" fill="#0D9488" opacity="0.06" stroke="#0D9488" stroke-width="0.8"/>
  <rect x="188" y="100" width="38" height="4" rx="2" fill="#0D9488" opacity="0.3"/>
  <text x="188" y="117" font-family="Inter, sans-serif" font-size="8" fill="#0D9488" font-weight="500">$5,200</text>
  <!-- Deal cards - Proposal -->
  <rect x="262" y="52" width="62" height="35" rx="5" fill="#F59E0B" opacity="0.1" stroke="#F59E0B" stroke-width="1"/>
  <rect x="268" y="58" width="42" height="4" rx="2" fill="#F59E0B" opacity="0.4"/>
  <text x="268" y="75" font-family="Inter, sans-serif" font-size="8" fill="#D97706" font-weight="600">$12,000</text>
  <!-- Deal cards - Won -->
  <rect x="335" y="52" width="28" height="35" rx="5" fill="#10B981" opacity="0.12" stroke="#10B981" stroke-width="1"/>
  <circle cx="349" cy="65" r="6" fill="#10B981" opacity="0.2"/>
  <path d="M346 65 L348 67 L352 63" stroke="#10B981" stroke-width="1.5" stroke-linecap="round" fill="none"/>
  <!-- Bottom stats -->
  <rect x="108" y="172" width="55" height="3" rx="1.5" fill="#2563EB" opacity="0.2"/>
  <rect x="185" y="172" width="45" height="3" rx="1.5" fill="#0D9488" opacity="0.2"/>
  <rect x="265" y="172" width="35" height="3" rx="1.5" fill="#F59E0B" opacity="0.2"/>
</svg>