<svg xmlns="http://www.w3.org/2000/svg" viewBox="0 0 400 200" fill="none">
  <defs>
    <linearGradient id="bg5" x1="0%" y1="0%" x2="100%" y2="100%">
      <stop offset="0%" style="stop-color:#F0FDFA"/>
      <stop offset="100%" style="stop-color:#FFFBEB"/>
    </linearGradient>
  </defs>
  <rect width="400" height="200" rx="12" fill="url(#bg5)"/>
  <!-- Email template preview -->
  <rect x="25" y="20" width="150" height="160" rx="10" fill="white" stroke="#E2E8F0" stroke-width="1.5"/>
  <rect x="25" y="20" width="150" height="28" rx="10" fill="#2563EB" opacity="0.08"/>
  <rect x="25" y="38" width="150" height="10" fill="#2563EB" opacity="0.08"/>
  <rect x="40" y="30" width="60" height="5" rx="2.5" fill="#2563EB" opacity="0.3"/>
  <!-- Image placeholder -->
  <rect x="35" y="56" width="130" height="40" rx="6" fill="#0D9488" opacity="0.08"/>
  <circle cx="100" cy="76" r="10" fill="#0D9488" opacity="0.15"/>
  <path d="M95 76 L100 72 L105 76 L100 80Z" fill="#0D9488" opacity="0.3"/>
  <!-- Text lines -->
  <rect x="35" y="105" width="120" height="4" rx="2" fill="#334155" opacity="0.15"/>
  <rect x="35" y="114" width="100" height="4" rx="2" fill="#334155" opacity="0.1"/>
  <rect x="35" y="123" width="110" height="4" rx="2" fill="#334155" opacity="0.1"/>
  <!-- CTA button in email -->
  <rect x="55" y="138" width="90" height="22" rx="11" fill="#F59E0B" opacity="0.2" stroke="#F59E0B" stroke-width="1"/>
  <text x="100" y="153" font-family="Inter, sans-serif" font-size="9" fill="#D97706" font-weight="600" text-anchor="middle">Shop Now →</text>
  <!-- Analytics panel -->
  <rect x="200" y="20" width="175" height="160" rx="10" fill="white" stroke="#E2E8F0" stroke-width="1.5"/>
  <text x="215" y="40" font-family="Inter, sans-serif" font-size="10" fill="#334155" font-weight="600">Campaign Analytics</text>
  <!-- Chart area -->
  <line x1="215" y1="140" x2="360" y2="140" stroke="#E2E8F0" stroke-width="1"/>
  <line x1="215" y1="120" x2="360" y2="120" stroke="#E2E8F0" stroke-width="0.5" stroke-dasharray="3 3"/>
  <line x1="215" y1="100" x2="360" y2="100" stroke="#E2E8F0" stroke-width="0.5" stroke-dasharray="3 3"/>
  <line x1="215" y1="80" x2="360" y2="80" stroke="#E2E8F0" stroke-width="0.5" stroke-dasharray="3 3"/>
  <line x1="215" y1="60" x2="360" y2="60" stroke="#E2E8F0" stroke-width="0.5" stroke-dasharray="3 3"/>
  <!-- Bar chart -->
  <rect x="222" y="95" width="14" height="45" rx="3" fill="#2563EB" opacity="0.6"/>
  <rect x="244" y="80" width="14" height="60" rx="3" fill="#2563EB" opacity="0.7"/>
  <rect x="266" y="70" width="14" height="70" rx="3" fill="#0D9488" opacity="0.7"/>
  <rect x="288" y="60" width="14" height="80" rx="3" fill="#0D9488" opacity="0.8"/>
  <rect x="310" y="55" width="14" height="85" rx="3" fill="#F59E0B" opacity="0.7"/>
  <rect x="332" y="50" width="14" height="90" rx="3" fill="#F59E0B" opacity="0.8"/>
  <!-- Labels -->
  <text x="229" y="152" font-family="Inter, sans-serif" font-size="7" fill="#94A3B8" text-anchor="middle">Mon</text>
  <text x="251" y="152" font-family="Inter, sans-serif" font-size="7" fill="#94A3B8" text-anchor="middle">Tue</text>
  <text x="273" y="152" font-family="Inter, sans-serif" font-size="7" fill="#94A3B8" text-anchor="middle">Wed</text>
  <text x="295" y="152" font-family="Inter, sans-serif" font-size="7" fill="#94A3B8" text-anchor="middle">Thu</text>
  <text x="317" y="152" font-family="Inter, sans-serif" font-size="7" fill="#94A3B8" text-anchor="middle">Fri</text>
  <text x="339" y="152" font-family="Inter, sans-serif" font-size="7" fill="#94A3B8" text-anchor="middle">Sat</text>
  <!-- Stats -->
  <rect x="215" y="160" width="50" height="14" rx="4" fill="#2563EB" opacity="0.08"/>
  <text x="240" y="170" font-family="Inter, sans-serif" font-size="7" fill="#2563EB" font-weight="600" text-anchor="middle">68% Open</text>
  <rect x="272" y="160" width="50" height="14" rx="4" fill="#0D9488" opacity="0.08"/>
  <text x="297" y="170" font-family="Inter, sans-serif" font-size="7" fill="#0D9488" font-weight="600" text-anchor="middle">24% Click</text>
  <rect x="329" y="160" width="42" height="14" rx="4" fill="#F59E0B" opacity="0.08"/>
  <text x="350" y="170" font-family="Inter, sans-serif" font-size="7" fill="#D97706" font-weight="600" text-anchor="middle">8% Conv</text>
</svg>