<svg width="217" height="56" viewBox="0 0 217 56" fill="none" xmlns="http://www.w3.org/2000/svg">
<path d="M141.143 31.5136C141.398 29.5589 142.161 27.7053 143.356 26.1376C144.522 24.6819 145.958 23.4649 147.585 22.5536C149.266 21.6197 151.079 20.946 152.961 20.5555C156.892 19.7432 160.947 19.7432 164.878 20.5555C166.762 20.9429 168.575 21.6168 170.254 22.5536C171.838 23.475 173.231 24.6916 174.358 26.1376C175.557 27.7214 176.373 29.5616 176.741 31.5136H141.143ZM175.666 40.1242C174.595 42.684 172.626 44.7646 170.129 45.9751C167.557 47.2922 163.677 47.9373 158.534 47.9373C156.033 47.9774 153.541 47.636 151.142 46.9249C149.19 46.3433 147.351 45.4344 145.704 44.2368C144.267 43.1516 143.091 41.7586 142.263 40.16C141.496 38.606 141.106 36.8932 141.125 35.1603H182.879C183.008 31.8544 182.23 28.5761 180.63 25.6806C179.211 23.28 177.231 21.2598 174.859 19.7939C172.427 18.3515 169.762 17.3448 166.984 16.8192C164.198 16.2378 161.362 15.9376 158.516 15.9232C154.963 15.8494 151.421 16.3455 148.024 17.3926C145.34 18.2193 142.848 19.575 140.695 21.3798C138.829 22.9449 137.353 24.9237 136.385 27.1591C135.439 29.3045 134.951 31.6238 134.952 33.9687C134.981 36.1136 135.387 38.2366 136.152 40.2407C137.017 42.4418 138.379 44.4135 140.131 46.002C142.22 47.9082 144.682 49.3605 147.361 50.2669C150.961 51.4658 154.742 52.0268 158.534 51.9245C161.667 51.9668 164.793 51.6268 167.844 50.9121C170.218 50.3426 172.499 49.4375 174.618 48.2241C176.343 47.238 177.879 45.9514 179.151 44.425C180.265 43.1067 181.172 41.6262 181.839 40.0346L175.666 40.1242Z" fill="white"/>
<path d="M23.3002 31.5138C23.5509 29.5517 24.328 27.694 25.5491 26.1378C26.7081 24.6891 28.1309 23.473 29.7424 22.5538C31.4231 21.6199 33.2357 20.9462 35.1184 20.5557C39.0612 19.7433 43.1282 19.7433 47.071 20.5557C48.933 20.9492 50.7245 21.6229 52.3843 22.5538C53.9768 23.4745 55.3788 24.691 56.5149 26.1378C57.7023 27.7243 58.5058 29.5645 58.8624 31.5138H23.3002ZM57.823 40.1244C56.7518 42.6841 54.7827 44.7647 52.2858 45.9752C49.7142 47.2924 45.8346 47.9375 40.6915 47.9375C38.1993 47.9764 35.7157 47.635 33.3264 46.925C31.3639 46.3491 29.515 45.4398 27.8608 44.237C26.4345 43.1664 25.2753 41.7803 24.4739 40.1871C23.6915 38.6373 23.2892 36.9235 23.3002 35.1874H65.0538C65.1833 31.8815 64.4055 28.6032 62.8048 25.7077C61.3874 23.3094 59.4107 21.2897 57.0435 19.821C54.6082 18.3784 51.94 17.3718 49.1587 16.8463C46.3734 16.2649 43.5368 15.9647 40.6915 15.9503C37.1382 15.8779 33.5961 16.374 30.1994 17.4197C27.5234 18.2605 25.0369 19.6148 22.8791 21.4069C21.0043 22.9595 19.5191 24.9295 18.5424 27.1592C17.6116 29.3083 17.1357 31.6268 17.1447 33.9688C17.1566 36.1155 17.5636 38.2416 18.3453 40.2408C19.1865 42.4454 20.5374 44.4196 22.2877 46.0021C24.3798 47.9048 26.8411 49.3566 29.5184 50.2671C33.1187 51.4624 36.8993 52.0233 40.6915 51.9247C43.8124 51.9892 46.9296 51.6733 49.9741 50.9839C52.3493 50.4178 54.6307 49.5125 56.7478 48.2959C58.4759 47.3171 60.0096 46.0294 61.2726 44.4968C62.3867 43.1786 63.2931 41.6981 63.9606 40.1064L57.823 40.1244Z" fill="white"/>
<path d="M188.764 50.9595H194.615L194.552 33.6578C194.486 31.5493 194.958 29.4587 195.923 27.5829C196.773 26.0058 197.964 24.6378 199.409 23.5778C200.845 22.5698 202.459 21.8432 204.166 21.4363C205.836 21.0085 207.55 20.7829 209.273 20.7643C211.17 20.7795 213.064 20.9112 214.945 21.1586V16.2127C213.725 16.0193 212.489 15.9354 211.254 15.9618C209.044 15.9256 206.84 16.194 204.704 16.7592C203.037 17.2347 201.447 17.9468 199.982 18.8738C198.769 19.6299 197.69 20.5839 196.792 21.6962C196.016 22.6605 195.318 23.6852 194.705 24.7605H194.543V17.0101H188.692L188.764 50.9595Z" fill="white"/>
<path d="M108.663 38.8096C107.845 41.5337 106.065 43.8678 103.655 45.3773C101.047 47.0886 97.4632 47.9488 92.9832 47.9488C87.1144 47.9488 82.5896 46.6944 79.4625 44.1497C77.9448 42.9395 76.7308 41.3914 75.9172 39.6289C75.1037 37.8664 74.713 35.9382 74.7765 33.9981C74.7556 32.1103 75.131 30.2392 75.8785 28.5056C76.6395 26.7667 77.7999 25.2318 79.2654 24.0256C80.9284 22.6705 82.8441 21.6593 84.9013 21.0509C87.5208 20.2935 90.2387 19.9311 92.9653 19.9757C96.3474 19.8796 99.7101 20.5185 102.821 21.8483C104.148 22.4236 105.331 23.2837 106.288 24.3676C107.245 25.4515 107.952 26.7327 108.359 28.1203H114.487C114.121 26.7073 113.515 25.3676 112.695 24.16C111.673 22.6133 110.369 21.2728 108.851 20.2087C106.87 18.8711 104.694 17.8467 102.4 17.1712C99.3357 16.3168 96.164 15.9094 92.9832 15.9616C89.3529 15.8841 85.7307 16.3369 82.2312 17.3056C79.4609 18.0535 76.8684 19.3483 74.6062 21.1136C72.6731 22.6476 71.1367 24.6235 70.1262 26.8749C69.1116 29.0983 68.6007 31.5184 68.6299 33.9622C68.5907 36.4955 69.1365 39.0036 70.2248 41.2915C71.3409 43.5205 72.9569 45.4616 74.9467 46.9632C77.2292 48.6682 79.8131 49.9267 82.5627 50.6726C85.9581 51.5945 89.4651 52.0408 92.9832 51.9987C96.3271 52.0895 99.6615 51.6014 102.839 50.5561C105.217 49.7793 107.442 48.5971 109.416 47.0617C110.948 45.8952 112.233 44.4364 113.197 42.7699C113.922 41.5332 114.468 40.1998 114.819 38.8096H108.663Z" fill="white"/>
<path d="M130.74 50.958H134.655C128.715 45.582 126.95 41.2005 126.95 35.278L126.887 3.91797H120.911L120.973 35.5109C120.973 43.5749 125.086 48.6642 130.74 50.9401" fill="white"/>
<path d="M13.3202 50.958H17.2446C11.3042 45.582 9.53008 41.2005 9.53008 35.278L9.46736 3.91797H3.5L3.56272 35.5109C3.56272 43.5749 7.6664 48.6642 13.3202 50.9401" fill="white"/>
<path d="M209.285 47.91C209.282 47.3937 209.165 46.8845 208.942 46.4189C208.719 45.9533 208.396 45.5428 207.995 45.2171C207.595 44.8913 207.127 44.6584 206.626 44.5349C206.125 44.4115 205.602 44.4007 205.096 44.5032C204.59 44.6058 204.113 44.8191 203.7 45.128C203.286 45.4368 202.946 45.8335 202.704 46.2895C202.462 46.7454 202.324 47.2494 202.3 47.7651C202.276 48.2807 202.366 48.7953 202.565 49.2719C202.737 49.6899 202.993 50.0681 203.317 50.3829C203.635 50.7034 204.013 50.959 204.428 51.1356C204.854 51.314 205.311 51.4059 205.772 51.4059C206.234 51.4059 206.691 51.314 207.116 51.1356C207.532 50.959 207.909 50.7034 208.227 50.3829C208.552 50.0681 208.808 49.6899 208.98 49.2719C209.162 48.841 209.253 48.3775 209.249 47.91M208.55 47.91C208.55 48.2935 208.477 48.6735 208.335 49.03C208.06 49.7095 207.529 50.2535 206.856 50.5442C206.508 50.6921 206.133 50.7683 205.754 50.7683C205.376 50.7683 205.001 50.6921 204.652 50.5442C204.144 50.317 203.713 49.9471 203.41 49.4796C203.108 49.012 202.948 48.4667 202.95 47.91C202.951 47.1551 203.243 46.4298 203.765 45.885C204.025 45.6294 204.328 45.423 204.661 45.2757C205.368 44.9888 206.159 44.9888 206.865 45.2757C207.199 45.423 207.502 45.6294 207.761 45.885C208.012 46.1447 208.213 46.4485 208.353 46.781C208.493 47.1379 208.566 47.5176 208.568 47.901M207.287 49.7916L206.453 48.1967C206.588 48.1427 206.715 48.0703 206.83 47.9816C206.95 47.8834 207.045 47.7586 207.109 47.6171C207.173 47.4757 207.203 47.3213 207.197 47.1663C207.194 46.9644 207.138 46.7668 207.036 46.5926C206.934 46.4184 206.789 46.2734 206.615 46.1717C206.421 46.0621 206.201 46.0064 205.978 46.0104H204.554V49.7916H205.253V48.2952H205.736L206.507 49.8005L207.287 49.7916ZM206.507 47.1663C206.508 47.2429 206.493 47.3188 206.464 47.3896C206.434 47.4604 206.391 47.5246 206.337 47.5784C206.214 47.6874 206.053 47.7451 205.889 47.7397H205.253V46.6108H205.88C205.962 46.6062 206.043 46.6181 206.12 46.6458C206.197 46.6735 206.268 46.7165 206.328 46.772C206.382 46.8242 206.425 46.8869 206.454 46.9562C206.484 47.0255 206.499 47.1 206.498 47.1752" fill="white"/>
</svg>
