<?xml version="1.0" encoding="UTF-8"?> <svg xmlns="http://www.w3.org/2000/svg" width="196" height="88" viewBox="0 0 196 88" fill="none"><path d="M83.3781 61.2459C82.9382 61.2588 82.5185 61.4343 82.1998 61.7386V59.6716H80.9277V59.9041L81.2482 59.9511V64.701L80.9277 64.7479V64.9827H82.1998V64.7874C82.4725 64.9684 82.794 65.061 83.1209 65.0528C84.2294 65.0528 84.8613 64.3327 84.8613 63.0811C84.8613 61.9913 84.2368 61.2459 83.3781 61.2459ZM83.0116 64.7285C82.7133 64.7201 82.4268 64.6097 82.1998 64.4155V62.0502C82.4009 61.9462 82.6214 61.885 82.8473 61.8706C83.4718 61.8706 83.8465 62.4103 83.8465 63.263C83.8465 64.171 83.5342 64.7271 83.0116 64.7271V64.7285ZM87.7652 61.3167H88.8268V61.5746L88.5294 61.6298L87.0552 65.2116C86.7191 66.0316 86.4151 66.7144 85.717 66.7144C85.5094 66.7174 85.3023 66.6938 85.1007 66.6443V65.8377H85.3118L85.4523 66.159C85.5392 66.2258 85.6471 66.2591 85.7564 66.2529C86.1935 66.2529 86.4827 65.5955 86.6619 65.1654L86.7013 65.0714L85.2107 61.6358L84.9215 61.5731V61.3152H86.5526V61.5806L86.2329 61.6432L87.1927 63.8974L88.0923 61.6283L87.7644 61.5731L87.7652 61.3167ZM93.8309 59.8296H95.5705V60.0875L95.2196 60.1345V64.6749L95.5705 64.7218V64.988H93.8309V64.7218L94.2026 64.6749V62.6063H91.9805V64.6749L92.3239 64.7218V64.988H90.614V64.7218L90.9575 64.6749V60.133L90.614 60.086V59.8296H92.3239V60.0875L91.9805 60.1345V62.0726H94.2048V60.1345L93.8331 60.0875L93.8309 59.8296ZM97.5927 64.7047L97.9213 64.7517V64.9865H96.3207V64.7494L96.6485 64.7025V61.597L96.3207 61.5493V61.3152H97.5927V64.7047ZM96.6017 60.1799C96.5878 59.9754 96.6871 59.7799 96.8603 59.6709C97.0335 59.562 97.2524 59.5575 97.4299 59.6591C97.6075 59.7607 97.7149 59.9519 97.7094 60.1568C97.7199 60.3114 97.6664 60.4635 97.5617 60.5774C97.4569 60.6913 97.3101 60.757 97.1556 60.7591C97.0031 60.7638 96.8558 60.7034 96.7502 60.593C96.6447 60.4826 96.5907 60.3325 96.6017 60.1799ZM99.8877 64.7032L100.216 64.7502V64.985H98.6157V64.7494L98.9354 64.7025V59.9533L98.6157 59.9064V59.6716H99.8877V64.7032ZM102.787 64.5854C102.957 64.593 103.127 64.58 103.294 64.5467V64.7971C102.917 64.9417 102.519 65.0211 102.115 65.0319C101.382 65.0319 101.21 64.6957 101.21 64.0539V61.6596H100.54V61.3152H101.236V60.5474L102.164 60.2657V61.3152H103.022V61.6596H102.16V63.8422C102.16 64.4058 102.276 64.5854 102.784 64.5854H102.787ZM105.414 61.2131C104.883 61.1778 104.362 61.3741 103.986 61.7516C103.609 62.1291 103.413 62.6512 103.448 63.184C103.367 63.7112 103.542 64.2455 103.918 64.6226C104.294 64.9998 104.827 65.1748 105.353 65.0938C105.875 65.1368 106.391 64.9516 106.768 64.5858C107.144 64.22 107.345 63.7091 107.319 63.184C107.38 62.6559 107.201 62.1285 106.832 61.7468C106.463 61.3651 105.943 61.1692 105.414 61.2131ZM105.375 64.8128C104.837 64.8128 104.493 64.3275 104.493 63.1617C104.493 61.9802 104.837 61.4949 105.375 61.4949C105.929 61.4949 106.273 62.004 106.273 63.1617C106.274 64.3514 105.953 64.8128 105.375 64.8128ZM111.55 64.7032L111.877 64.7502V64.985H110.278V64.7494L110.598 64.7025V62.6153C110.598 62.0361 110.387 61.7781 109.95 61.7781C109.676 61.8124 109.415 61.9175 109.193 62.083V64.7047L109.52 64.7517V64.9865H107.913V64.7494L108.241 64.7025V61.6186L107.913 61.5717V61.3137H109.193V61.8221C109.548 61.475 110.017 61.2691 110.512 61.2429C111.23 61.2429 111.553 61.6656 111.553 62.4952L111.55 64.7032ZM114.235 59.9041V60.818L114.337 60.8374V60.912H113.89V60.8374L113.994 60.818V60.004L113.592 60.9157H113.55L113.164 60.0212V60.8225L113.265 60.8419V60.9164H112.947V60.8419L113.046 60.8225V59.9041L112.947 59.881V59.8065H113.339L113.645 60.5228L113.963 59.8065H114.335V59.881L114.235 59.9041ZM111.861 59.808H112.868V60.0316H112.784L112.761 59.9161H112.485V60.8218L112.604 60.8411V60.9157H112.125V60.8411L112.246 60.8218V59.9138H111.971L111.952 60.0294H111.861V59.808Z" fill="#2E2A25"></path><path d="M66.511 54.2065L66.9697 54.6575C66.3449 55.3663 65.4412 55.7645 64.4978 55.7465C63.6612 55.7504 62.8591 55.4131 62.2754 54.8122C61.6918 54.2112 61.3768 53.3982 61.4029 52.5598V52.5419C61.3801 51.698 61.6994 50.8808 62.2877 50.2768C62.876 49.6729 63.6833 49.3337 64.5253 49.3366C65.4308 49.3095 66.3057 49.6662 66.9355 50.3191L66.4583 50.8327C65.9545 50.2944 65.2525 49.9872 64.5164 49.9829C63.8593 49.9903 63.2334 50.2649 62.7822 50.7439C62.331 51.2229 62.0932 51.8651 62.1233 52.5233V52.5404C62.0926 53.2003 62.3296 53.8446 62.7803 54.3265C63.2309 54.8084 63.8569 55.087 64.5156 55.0987C65.2769 55.0986 66.0023 54.7743 66.511 54.2065ZM75.6301 52.5233V52.5404C75.6505 53.6805 75.0567 54.7432 74.0763 55.3211C73.0959 55.899 71.8811 55.9024 70.8974 55.3301C69.9138 54.7578 69.314 53.6985 69.3279 52.5583V52.5404C69.3077 51.4003 69.9016 50.3377 70.8821 49.7599C71.8625 49.1821 73.0774 49.1788 74.061 49.7512C75.0445 50.3237 75.6442 51.3831 75.6301 52.5233ZM74.9067 52.5404C74.9331 51.8741 74.6886 51.2256 74.2292 50.7434C73.7698 50.2613 73.1348 49.9868 72.4697 49.9829C71.8087 49.9847 71.1769 50.2567 70.7205 50.7362C70.264 51.2157 70.0224 51.8611 70.0513 52.5233V52.5404C70.026 53.2065 70.2708 53.8545 70.73 54.3366C71.1892 54.8186 71.8235 55.0936 72.4883 55.0987C73.1494 55.0969 73.7811 54.8249 74.2376 54.3454C74.694 53.8659 74.9357 53.2205 74.9067 52.5583V52.5404ZM79.2187 49.4432H78.5206V55.6384H82.6958V54.9929H79.2157L79.2187 49.4432ZM86.2724 49.4432H85.5744V55.6384H89.7495V54.9929H86.2695L86.2724 49.4432ZM93.3262 52.8326H96.6977V52.1953H93.3232V50.082H97.0925V49.4447H92.6274V55.6399H97.1386V55.0026H93.3232L93.3262 52.8326ZM102.975 55.0987C102.317 55.0872 101.691 54.8089 101.24 54.3273C100.789 53.8457 100.552 53.2017 100.582 52.5419V52.5233C100.552 51.8652 100.79 51.2232 101.241 50.7442C101.692 50.2652 102.318 49.9905 102.975 49.9829C103.711 49.9874 104.413 50.2946 104.916 50.8327L105.393 50.3191C104.764 49.6661 103.889 49.3094 102.984 49.3366C102.142 49.3337 101.334 49.6729 100.746 50.2768C100.158 50.8808 99.8383 51.698 99.8611 52.5419V52.5598C99.835 53.3987 100.15 54.2122 100.735 54.8132C101.319 55.4143 102.122 55.7512 102.959 55.7465C103.902 55.7647 104.806 55.3665 105.43 54.6575L104.969 54.2065C104.46 54.7752 103.734 55.1002 102.972 55.1002L102.975 55.0987ZM107.794 50.0902H109.868V55.6399H110.575V50.0902H112.649V49.4447H107.794V50.0902ZM115.607 55.6399H116.304V49.4447H115.607V55.6399ZM125.731 52.5233V52.5404C125.735 53.6693 125.137 54.7142 124.163 55.2814C123.19 55.8487 121.989 55.8521 121.012 55.2904C120.035 54.7287 119.432 53.6872 119.428 52.5583V52.5404C119.424 50.7953 120.831 49.3767 122.571 49.372C124.312 49.3673 125.727 50.7781 125.731 52.5233ZM125.007 52.5404C125.034 51.8742 124.789 51.2258 124.33 50.7437C123.871 50.2616 123.236 49.987 122.571 49.9829C121.91 49.9847 121.278 50.2567 120.822 50.7362C120.365 51.2157 120.124 51.8611 120.153 52.5233V52.5404C120.127 53.2066 120.371 53.8549 120.83 54.3372C121.289 54.8196 121.923 55.0949 122.588 55.1002C123.249 55.0984 123.881 54.8264 124.337 54.3469C124.794 53.8674 125.035 53.222 125.006 52.5598L125.007 52.5404ZM132.989 49.4447V54.41L129.096 49.4447H128.443V55.6399H129.122V50.5598L133.112 55.6399H133.668V49.4447H132.989Z" fill="#2E2A25"></path><path d="M72.9335 42.3711C71.6658 44.7391 69.1778 46.191 66.4983 46.1266C61.4146 46.1266 58 42.3406 58 37.0637C58 32.2795 60.9953 28.7283 65.3266 28.0015C62.851 28.7872 61.4607 32.1677 61.4607 37.0637C61.4607 42.465 63.6628 45.5742 67.3517 45.5742C69.649 45.5815 71.7761 44.3609 72.9335 42.3711ZM72.4488 33.8889V28.2385L71.5061 29.4558L71.3314 29.3313C70.1024 28.5316 68.6842 28.0722 67.2209 28C69.4512 28.4174 71.2801 30.4912 72.4488 33.8889ZM83.3945 45.5735C80.272 45.5735 78.658 44.0081 78.658 40.685V30.0127C78.5912 29.3547 78.9809 28.7359 79.6022 28.5136C79.7025 28.4786 79.8252 28.4428 79.9605 28.4085H74.4873C74.6226 28.4428 74.7453 28.4786 74.8434 28.5136C75.4651 28.7359 75.8559 29.3541 75.7913 30.0127V40.685C75.7913 44.0468 78.3398 46.1318 82.5908 46.1318C85.6285 46.1318 88.6387 44.5276 88.9175 40.96C88.6327 43.7479 86.5177 45.5735 83.3945 45.5735ZM122.676 37.0637C122.676 32.0529 124.12 28.8312 126.69 28.0015C124.85 28.2887 123.145 29.1463 121.815 30.454C120.016 32.1666 119.047 34.5786 119.161 37.0637C119.096 39.5668 120.064 41.9857 121.837 43.7494C123.195 45.0415 124.923 45.8731 126.778 46.1266C124.185 45.3312 122.676 41.9798 122.676 37.0637ZM134.409 30.454C133.079 29.1455 131.373 28.2878 129.532 28.0015C132.106 28.8312 133.546 32.0529 133.546 37.0637C133.546 41.9798 132.037 45.3312 129.437 46.1266C131.293 45.8746 133.023 45.0429 134.381 43.7494C136.156 41.987 137.126 39.5676 137.062 37.0637C137.175 34.5789 136.207 32.1672 134.409 30.454ZM116.252 28.5158C116.353 28.4808 116.475 28.4458 116.611 28.4115H111.139C111.273 28.4458 111.396 28.4808 111.494 28.5158C112.116 28.7371 112.508 29.3543 112.444 30.0127V44.1139C112.51 44.7726 112.119 45.3911 111.497 45.6137C111.381 45.6548 111.262 45.6898 111.142 45.7188H116.614C116.477 45.6846 116.356 45.6503 116.255 45.6137C115.634 45.3909 115.245 44.7719 115.312 44.1139V30.0127C115.246 29.3552 115.635 28.7371 116.255 28.5143L116.252 28.5158ZM107.584 45.0286C107.083 45.0286 106.42 44.7923 106.134 43.6719C105.995 43.121 105.888 42.5843 105.776 42.017C105.64 41.3089 105.478 40.5784 105.276 39.7808C104.574 36.9802 100.053 37.0614 100.053 37.0614C100.053 37.0614 106.205 36.4442 106.205 32.2161C106.205 31.3216 105.783 28.4063 100.35 28.4063H99.8297C101.688 28.7842 102.768 30.3339 102.768 32.7119C102.768 35.1762 101.459 36.7774 99.1495 37.0592C101.709 37.2731 102.215 39.5937 102.479 41.853C102.851 44.7975 103.849 46.1251 105.925 46.1251C107.413 46.2769 108.778 45.2887 109.103 43.8255C108.896 44.5045 108.291 44.9838 107.584 45.0286ZM96.9905 44.1139V28.41H92.822C92.9558 28.4443 93.0785 28.4793 93.1759 28.5143C93.7973 28.7366 94.1881 29.3543 94.1238 30.0127V44.1139C94.1888 44.7728 93.7979 45.3914 93.1759 45.6137C93.0598 45.6548 92.9417 45.6899 92.822 45.7188H98.29C98.1577 45.6846 98.035 45.6503 97.9369 45.6137C97.3155 45.3908 96.9253 44.7724 96.9905 44.1139ZM88.0291 28.8252C88.632 29.2642 88.8647 30.2661 88.9167 31.9597C88.9688 30.2661 89.2037 29.2642 89.8089 28.8252C90.1091 28.6341 90.4386 28.4939 90.7843 28.41H87.0514C87.3978 28.4938 87.728 28.6341 88.0291 28.8252Z" fill="#2E2A25"></path></svg> 